<svg width="22" height="20" viewBox="0 0 22 20" fill="none" xmlns="http://www.w3.org/2000/svg">
<path fill-rule="evenodd" clip-rule="evenodd" d="M11.0091 0C4.92135 0 0 4.58331 0 10.2535C0 14.786 3.15328 18.6226 7.52772 19.9805C8.07463 20.0826 8.27497 19.7599 8.27497 19.4885C8.27497 19.2508 8.25694 18.436 8.25694 17.587C5.19447 18.1983 4.55674 16.3647 4.55674 16.3647C4.06458 15.1764 3.33536 14.871 3.33536 14.871C2.33302 14.2429 3.40837 14.2429 3.40837 14.2429C4.52024 14.3108 5.10366 15.2954 5.10366 15.2954C6.08775 16.857 7.67352 16.4158 8.31147 16.1441C8.40251 15.482 8.69434 15.0237 9.00419 14.7691C6.56165 14.5314 3.9918 13.6487 3.9918 9.71017C3.9918 8.58976 4.42897 7.67309 5.12169 6.96018C5.01239 6.7056 4.62953 5.65289 5.23121 4.24394C5.23121 4.24394 6.16076 3.97228 8.25671 5.29644C9.15407 5.07199 10.0795 4.95782 11.0091 4.95685C11.9387 4.95685 12.8862 5.07581 13.7613 5.29644C15.8574 3.97228 16.787 4.24394 16.787 4.24394C17.3887 5.65289 17.0056 6.7056 16.8963 6.96018C17.6073 7.67309 18.0264 8.58976 18.0264 9.71017C18.0264 13.6487 15.4566 14.5143 12.9958 14.7691C13.3969 15.0916 13.743 15.7026 13.743 16.6703C13.743 18.0453 13.725 19.1489 13.725 19.4883C13.725 19.7599 13.9255 20.0826 14.4722 19.9807C18.8467 18.6224 22 14.786 22 10.2535C22.018 4.58331 17.0786 0 11.0091 0Z" fill="white"/>
</svg>
