<svg width="20" height="20" viewBox="0 0 20 20" fill="none" xmlns="http://www.w3.org/2000/svg">
<g clip-path="url(#clip0_112_59)">
<path d="M7.07843 5.55315L8.70217 2.17269L9.44374 0.62863L9.32425 0.379285C9.21326 0.147549 8.97892 0 8.72169 0H3.99116C3.76134 0 3.54791 0.118186 3.42512 0.312708C3.30308 0.507231 3.28937 0.750801 3.3886 0.957687L6.33747 7.09705L7.07843 5.55315Z" fill="#3B4153"/>
<path d="M16.5748 0.312709C16.4521 0.118186 16.2386 0 16.0088 0H11.2789C11.0217 0 10.7873 0.147549 10.6764 0.379285L7.02367 7.98499C7.02103 7.99088 7.02037 7.99674 7.01773 8.0026C7.01192 8.01569 7.00923 8.03005 7.00403 8.04379C6.98056 8.1072 6.96689 8.17439 6.9636 8.24548C6.96291 8.25532 6.9577 8.26378 6.9577 8.27431V8.61894C7.86581 8.14364 8.89667 7.87075 9.9908 7.87075C11.0857 7.87075 12.1159 8.14368 13.0246 8.61964V8.42641L16.6114 0.957769C16.7106 0.750801 16.6968 0.507272 16.5748 0.312709Z" fill="#3B4153"/>
<path d="M9.99079 8.87354C6.91783 8.87354 4.42719 11.3641 4.42719 14.4371C4.42719 17.5094 6.91783 20 9.99079 20C13.0631 20 15.5538 17.5094 15.5538 14.4371C15.5538 11.3641 13.0631 8.87354 9.99079 8.87354ZM13.2975 13.4657L11.8123 14.9144C11.7659 14.96 11.7443 15.0253 11.7555 15.0893L12.1061 17.1347C12.1185 17.2084 12.0877 17.2835 12.0271 17.3279C11.9664 17.3723 11.8854 17.3775 11.8195 17.3429L9.98241 16.3775C9.92498 16.3473 9.85572 16.3473 9.79821 16.3775L7.96117 17.3429C7.8952 17.3775 7.81423 17.3723 7.75355 17.3279C7.69287 17.2835 7.66221 17.2084 7.67461 17.1347L8.02522 15.0893C8.03625 15.0254 8.01469 14.96 7.96841 14.9144L6.48315 13.4657C6.42902 13.4127 6.41007 13.3345 6.43289 13.2633C6.45648 13.1914 6.51846 13.1392 6.59223 13.1288L8.6467 12.8304C8.71071 12.8213 8.76622 12.7808 8.79494 12.7221L9.71354 10.8615C9.74685 10.7942 9.81542 10.751 9.89045 10.751C9.96553 10.751 10.034 10.7942 10.0673 10.8615L10.9859 12.7221C11.0146 12.7808 11.0701 12.8213 11.1342 12.8304L13.1886 13.1288C13.2624 13.1392 13.3245 13.1914 13.348 13.2633C13.3707 13.3345 13.3516 13.4127 13.2975 13.4657Z" fill="#3B4153"/>
</g>
<defs>
<clipPath id="clip0_112_59">
<rect width="20" height="20" fill="white"/>
</clipPath>
</defs>
</svg>
