<svg width="20" height="13" viewBox="0 0 20 13" fill="none" xmlns="http://www.w3.org/2000/svg">
<path d="M5.76445 8.67617C5.7614 8.64504 5.75164 8.61636 5.75164 8.58523V8.31851C5.75164 8.19156 5.77238 8.06644 5.8139 7.94742C5.8139 7.94742 6.47859 7.05754 6.79293 6.01199C6.44867 5.28566 6.13617 4.38175 6.13617 3.48574C6.13617 3.27761 6.15144 3.07621 6.17281 2.87781C5.72421 2.40785 5.11812 2.14172 4.44855 2.14172C3.06609 2.14172 1.94429 3.26965 1.94429 5.02258C1.94429 6.42515 3.08566 7.94738 3.08566 7.94738C3.12593 8.0664 3.14671 8.19152 3.14671 8.31847V8.58519C3.14671 8.91785 2.95261 9.22058 2.64988 9.35914L0.83773 10.0995C0.416558 10.2936 0.11687 10.6805 0.0332766 11.1359L0.00214377 11.5344C-0.0137156 11.742 0.0570656 11.9464 0.198667 12.0984C0.339644 12.2516 0.538042 12.3377 0.746167 12.3377H3.7082L3.82964 10.777L3.83757 10.7349C3.98589 9.9164 4.52667 9.22058 5.28226 8.87269L5.76445 8.67617Z" fill="#3B4153"/>
<path d="M19.9667 11.1359C19.8837 10.6805 19.584 10.2936 19.1629 10.0995L17.3495 9.35914C17.0468 9.22058 16.8539 8.91785 16.8539 8.58519V8.31847C16.8539 8.19152 16.8741 8.0664 16.9155 7.94738C16.9155 7.94738 18.0563 6.42515 18.0563 5.02258C18.0563 3.26965 16.9351 2.14172 15.5502 2.14172C14.8819 2.14172 14.2758 2.40785 13.8259 2.87902C13.8479 3.07679 13.8632 3.27758 13.8632 3.4857C13.8632 4.38109 13.5513 5.28504 13.2077 6.01133C13.5214 7.05687 14.1873 7.94738 14.1873 7.94738C14.2275 8.0664 14.2489 8.19152 14.2489 8.31847V8.58519C14.2489 8.61633 14.2385 8.645 14.2355 8.67613L14.6847 8.85925C15.472 9.21937 16.0128 9.91515 16.163 10.7336L16.1703 10.7764L16.2912 12.3377H19.2544C19.4625 12.3377 19.6609 12.2516 19.8013 12.0984C19.9429 11.9464 20.0137 11.742 19.9978 11.5344L19.9667 11.1359Z" fill="#3B4153"/>
<path d="M14.3698 9.63012L12.1762 8.73352C11.81 8.56504 11.5762 8.19883 11.5762 7.79723V7.47375C11.5762 7.32117 11.6007 7.16918 11.6513 7.02453C11.6513 7.02453 13.0307 5.18371 13.0307 3.4857C13.0307 1.3641 11.6739 0 9.99971 0C8.32612 0 6.9687 1.36414 6.9687 3.4857C6.9687 5.18371 8.34932 7.02453 8.34932 7.02453C8.39878 7.16918 8.4244 7.32117 8.4244 7.47375V7.79723C8.4244 8.19883 8.18882 8.56504 7.82319 8.73352L5.6296 9.63012C5.11995 9.86387 4.75679 10.3326 4.65671 10.8844L4.54378 12.3376H9.99971H15.4557L15.344 10.8844C15.2426 10.3327 14.8794 9.86391 14.3698 9.63012Z" fill="#3B4153"/>
</svg>
