<svg width="16" height="16" viewBox="0 0 16 16" fill="none" xmlns="http://www.w3.org/2000/svg">
<path d="M13.875 14.8545H14.75M11.25 14.8545H9.5V12.2099M12.125 12.2099H14.75V9.5653H13.875M9.5 9.5653H11.25M0.75 12.2096C0.75 11.3882 0.75 10.9774 0.88321 10.6535C1.06083 10.2214 1.40128 9.87842 1.83008 9.69947C2.15168 9.5653 2.55938 9.5653 3.37477 9.5653C4.19018 9.5653 4.59832 9.5653 4.91992 9.69947C5.34872 9.87842 5.68909 10.2214 5.8667 10.6535C5.99991 10.9774 5.99991 11.3884 5.99991 12.2099C5.99991 13.0314 5.99991 13.4421 5.8667 13.7661C5.68909 14.1981 5.34872 14.5413 4.91992 14.7202C4.59832 14.8544 4.19017 14.8544 3.37477 14.8544C2.55938 14.8544 2.15168 14.8544 1.83008 14.7202C1.40128 14.5413 1.06083 14.1984 0.88321 13.7663C0.75 13.4424 0.75 13.0311 0.75 12.2096ZM9.5 3.39436C9.5 2.57288 9.5 2.16214 9.63317 1.83814C9.8108 1.40614 10.1513 1.06315 10.5801 0.884204C10.9017 0.75 11.3094 0.75 12.1247 0.75C12.9402 0.75 13.3483 0.75 13.6699 0.884204C14.0987 1.06315 14.4391 1.40614 14.6167 1.83814C14.7499 2.16214 14.7499 2.57311 14.7499 3.39459C14.7499 4.21607 14.7499 4.62682 14.6167 4.95082C14.4391 5.38281 14.0987 5.72595 13.6699 5.90489C13.3483 6.03909 12.9402 6.03909 12.1247 6.03909C11.3094 6.03909 10.9017 6.03909 10.5801 5.90489C10.1513 5.72595 9.8108 5.38304 9.63317 4.95104C9.5 4.62704 9.5 4.21585 9.5 3.39436ZM0.75 3.39436C0.75 2.57288 0.75 2.16214 0.88321 1.83814C1.06083 1.40614 1.40128 1.06315 1.83008 0.884204C2.15168 0.75 2.55938 0.75 3.37477 0.75C4.19018 0.75 4.59832 0.75 4.91992 0.884204C5.34872 1.06315 5.68909 1.40614 5.8667 1.83814C5.99991 2.16214 5.99991 2.57311 5.99991 3.39459C5.99991 4.21607 5.99991 4.62682 5.8667 4.95082C5.68909 5.38281 5.34872 5.72595 4.91992 5.90489C4.59832 6.03909 4.19017 6.03909 3.37477 6.03909C2.55938 6.03909 2.15168 6.03909 1.83008 5.90489C1.40128 5.72595 1.06083 5.38304 0.88321 4.95104C0.75 4.62704 0.75 4.21585 0.75 3.39436Z" stroke="white" stroke-width="1.5" stroke-linecap="round" stroke-linejoin="round"/>
</svg>
