<svg width="22" height="20" viewBox="0 0 22 20" fill="none" xmlns="http://www.w3.org/2000/svg">
<path d="M12.6228 13.8913C11.0456 13.8913 9.5625 13.3329 8.44716 12.319C7.93741 11.8557 7.93741 11.1041 8.44716 10.6407C8.9569 10.1774 9.78373 10.1774 10.2935 10.6407C10.9157 11.2063 11.743 11.5176 12.6228 11.5176C13.5026 11.5176 14.3299 11.2063 14.9521 10.6403L18.4263 7.48226C19.7108 6.31465 19.7108 4.41514 18.4263 3.24753C17.1418 2.07992 15.0521 2.07992 13.7676 3.24753L12.2804 4.59948C11.7706 5.06283 10.9438 5.06283 10.434 4.59948C9.9243 4.13612 9.9243 3.38453 10.434 2.92117L11.9218 1.56964C14.2244 -0.523423 17.9705 -0.523004 20.2731 1.56964C22.5757 3.66271 22.5757 7.06792 20.2731 9.16098L16.7989 12.319C15.6831 13.3329 14.2004 13.8913 12.6228 13.8913Z" fill="white"/>
<path d="M5.90259 20C4.32543 20 2.84229 19.4415 1.72695 18.4277C-0.575648 16.3346 -0.575648 12.9294 1.72695 10.8363L5.20111 7.67831C7.50371 5.58566 11.2498 5.58566 13.5524 7.67831C14.0621 8.14167 14.0621 8.89326 13.5524 9.35662C13.0427 9.81997 12.2158 9.81997 11.7061 9.35662C10.4216 8.18901 8.33192 8.18901 7.04743 9.35662L3.57326 12.5146C2.28877 13.6823 2.28877 15.5818 3.57326 16.7494C4.19546 17.315 5.02275 17.6267 5.90259 17.6267C6.78242 17.6267 7.60971 17.3154 8.23191 16.7498L9.7192 15.3978C10.2289 14.9345 11.0558 14.9345 11.5655 15.3978C12.0753 15.8612 12.0753 16.6128 11.5655 17.0762L10.0782 18.4281C8.96288 19.4415 7.4802 20 5.90259 20Z" fill="white"/>
</svg>
